<svg xmlns="http://www.w3.org/2000/svg" width="64" height="64" viewBox="0 0 64 64"><path d="M41.614 20.441l-4.059-4.058-20.301 20.296c-3.363 3.362-3.363 8.816 0 12.178s8.816 3.362 12.18 0L53.795 24.5c5.607-5.604 5.607-14.691 0-20.295-5.604-5.606-14.694-5.606-20.299 0L7.919 29.779c-.018.019-.038.036-.055.053-7.819 7.818-7.819 20.491 0 28.307 7.816 7.816 20.492 7.816 28.312 0l.051-.055.002.002L53.687 40.63l-4.062-4.057-17.458 17.454c-.019.017-.035.036-.053.053-5.567 5.566-14.624 5.566-20.192 0-5.566-5.565-5.566-14.62 0-20.186l.056-.053-.003-.004 25.58-25.573c3.357-3.359 8.822-3.359 12.18 0 3.357 3.358 3.357 8.822 0 12.177L25.374 44.797a2.874 2.874 0 0 1-4.061 0 2.873 2.873 0 0 1 0-4.057l20.3-20.299z"/></svg>