<svg id="Capa_1" data-name="Capa 1" xmlns="http://www.w3.org/2000/svg" viewBox="0 0 456.18 422.78"><defs><style>.cls-1,.cls-3{fill:#fff}.cls-1{opacity:.6}.cls-2{fill:none}.cls-4{fill:#2f2f2f}</style></defs><title>technical-support</title><path class="cls-1" d="M39.15 271.4l17.67-38.29a12 12 0 0 0 1.1-5V40.7h294.61v191.36H108.35a12 12 0 0 0-6.15 1.7z" transform="translate(0 -16.7)"/><path class="cls-2" d="M352.53 232.06V40.7H57.92v187.38a12 12 0 0 1-1.1 5L39.15 271.4l63.05-37.65a12 12 0 0 1 6.15-1.7h244.18zM96.69 84.74h220.85a12 12 0 0 1 0 24H96.69a12 12 0 0 1 0-24zm0 89.68a12 12 0 1 1 0-24h146.47a12 12 0 0 1 0 24H96.69z" transform="translate(0 -16.7)"/><path class="cls-3" d="M399.11 355.82V173.46h-22.58v59.33a23.29 23.29 0 0 1-23.27 23.27H112.5V359.4h237.75a12 12 0 0 1 6.15 1.7l60.6 36.2-16.82-36.45a12 12 0 0 1-1.07-5.03zm-105.6-43H147a12 12 0 0 1 0-24h146.51a12 12 0 0 1 0 24.05z" transform="translate(0 -16.7)"/><path class="cls-4" d="M455.08 422.45l-32-69.26V172.44a23 23 0 0 0-23-23h-23.6V40a23.29 23.29 0 0 0-23.21-23.3H57.19A23.29 23.29 0 0 0 33.92 40v185.44L1.11 296.55a12 12 0 0 0 17 15.33l70.35-42v90.54a23 23 0 0 0 23 23h235.48L438 437.78a12 12 0 0 0 17.08-15.33zM356.4 361.1a12 12 0 0 0-6.15-1.7H112.5V256.06h240.77a23.29 23.29 0 0 0 23.27-23.27v-59.33h22.58v182.36a12 12 0 0 0 1.11 5L417 397.3zM39.15 271.4l17.67-38.29a12 12 0 0 0 1.1-5V40.7h294.61v191.36H108.35a12 12 0 0 0-6.15 1.7z" transform="translate(0 -16.7)"/><path class="cls-4" d="M96.69 108.74h220.85a12 12 0 0 0 0-24H96.69a12 12 0 0 0 0 24zm158.47 53.67a12 12 0 0 0-12-12H96.69a12 12 0 1 0 0 24h146.47a12 12 0 0 0 12-12zm38.35 126.46H147a12 12 0 0 0 0 24h146.51a12 12 0 0 0 0-24z" transform="translate(0 -16.7)"/></svg>